<?xml version="1.0" encoding="UTF-8" standalone="no"?>
<svg
   xmlns:dc="http://purl.org/dc/elements/1.1/"
   xmlns:cc="http://creativecommons.org/ns#"
   xmlns:rdf="http://www.w3.org/1999/02/22-rdf-syntax-ns#"
   xmlns:svg="http://www.w3.org/2000/svg"
   xmlns="http://www.w3.org/2000/svg"
   xmlns:sodipodi="http://sodipodi.sourceforge.net/DTD/sodipodi-0.dtd"
   xmlns:inkscape="http://www.inkscape.org/namespaces/inkscape"
   sodipodi:docname="icons.svg"
   id="svg21"
   version="1.1"
   viewBox="0 0 155 155"
   height="155pt"
   width="155pt"
   inkscape:version="0.92.1 r15371"
   inkscape:export-filename="C:\Users\19123\Desktop\icon.png"
   inkscape:export-xdpi="72"
   inkscape:export-ydpi="72">
  <sodipodi:namedview
     inkscape:current-layer="svg21"
     inkscape:window-maximized="1"
     inkscape:window-y="-8"
     inkscape:window-x="-8"
     inkscape:cy="106.8996"
     inkscape:cx="119.40083"
     inkscape:zoom="2.8284271"
     showgrid="false"
     id="namedview23"
     inkscape:window-height="961"
     inkscape:window-width="1280"
     inkscape:pageshadow="2"
     inkscape:pageopacity="0"
     guidetolerance="10"
     gridtolerance="10"
     objecttolerance="10"
     borderopacity="1"
     bordercolor="#666666"
     pagecolor="#ffffff" />
  <metadata
     id="metadata27">
    <rdf:RDF>
      <cc:Work
         rdf:about="">
        <dc:format>image/svg+xml</dc:format>
        <dc:type
           rdf:resource="http://purl.org/dc/dcmitype/StillImage" />
        <dc:title></dc:title>
      </cc:Work>
    </rdf:RDF>
  </metadata>
  <defs
     id="defs25" />
  <g
     id="#ffffffff" />
  <g
     id="#e1f4feff"
     style="opacity:0.6">
    <path
       fill="#ffffff"
       opacity="1.00"
       d=" M 61.50 0.00 L 116.26 0.00 C 111.01 4.83 106.10 10.00 101.36 15.33 C 89.89 27.20 78.97 39.64 66.61 50.62 C 58.90 58.26 50.77 65.47 42.42 72.40 C 38.62 75.40 34.72 78.44 30.13 80.14 C 29.51 73.24 31.78 66.59 34.22 60.26 C 40.57 45.33 49.40 31.63 58.04 17.95 C 60.92 13.05 65.06 8.60 66.09 2.84 C 64.59 3.27 63.02 3.71 61.95 4.93 C 54.04 12.70 45.86 20.19 38.38 28.38 C 33.85 33.02 29.86 38.15 25.19 42.65 C 26.23 37.89 30.18 34.70 32.54 30.62 C 38.81 21.90 45.34 13.36 51.77 4.76 C 54.01 1.62 58.00 0.87 61.50 0.00 Z"
       id="path11"
       style="" />
    <path
       fill="#ffffff"
       opacity="1.00"
       d=" M 122.42 0.00 L 123.60 0.00 C 130.98 6.18 139.15 11.32 146.54 17.46 C 148.23 18.65 148.04 20.89 148.47 22.68 C 137.68 26.82 129.17 35.63 123.30 45.40 C 120.40 51.23 116.85 57.75 118.75 64.45 C 121.65 70.99 128.67 73.99 134.77 76.82 C 134.52 78.37 134.24 80.00 133.28 81.30 C 130.39 85.62 126.76 89.39 123.09 93.04 C 106.94 109.77 88.86 124.51 70.09 138.19 C 66.42 141.19 62.00 143.73 59.81 148.11 C 65.51 144.76 70.70 140.65 76.18 136.96 C 93.55 125.43 109.59 112.03 124.89 97.91 C 130.33 92.70 136.05 87.55 139.78 80.91 C 141.15 78.50 141.20 74.97 138.78 73.20 C 133.58 68.98 125.59 67.73 122.60 61.10 C 121.99 55.70 124.82 50.64 126.98 45.87 C 131.73 36.96 139.12 29.54 147.72 24.31 C 146.28 32.34 146.39 40.51 145.57 48.60 C 144.04 59.96 143.96 71.46 142.65 82.85 C 142.61 85.48 140.26 87.03 138.53 88.65 C 132.01 94.06 126.41 100.46 119.92 105.91 C 102.67 122.50 84.65 138.25 67.56 155.00 L 63.46 155.00 C 56.47 152.96 49.26 151.95 42.10 150.71 C 40.59 150.24 38.45 150.24 37.76 148.55 C 34.43 140.93 31.16 133.27 27.09 126.02 C 18.79 108.31 10.38 90.65 1.79 73.07 C 2.96 70.46 3.84 67.59 5.87 65.47 C 10.76 61.25 14.71 56.09 19.03 51.31 C 30.90 38.00 42.99 24.76 56.63 13.24 C 47.50 28.32 36.98 42.70 30.05 59.01 C 27.07 65.30 25.02 72.09 24.69 79.06 C 24.99 81.69 26.25 84.61 28.96 85.51 C 31.36 85.74 33.68 84.82 35.78 83.74 C 43.93 79.22 50.69 72.71 57.70 66.65 C 63.62 61.63 69.02 56.04 74.73 50.78 C 86.13 40.00 96.52 28.24 107.67 17.21 C 102.33 26.06 96.61 34.67 91.34 43.56 C 75.58 69.12 61.74 95.82 49.11 123.05 C 45.74 131.55 40.61 139.33 38.11 148.16 C 46.97 134.19 52.89 118.60 60.92 104.16 C 76.62 72.19 95.73 42.06 115.34 12.38 C 117.91 8.38 120.78 4.51 122.42 0.00 Z"
       id="path13"
       style="" />
  </g>
  <g
     id="#46c7a2ff">
    <path
       opacity="1.00"
       fill="#46c7a2"
       d=" M 116.26 0.00 L 122.42 0.00 C 120.78 4.51 117.91 8.38 115.34 12.38 C 95.73 42.06 76.62 72.19 60.92 104.16 C 52.89 118.60 46.97 134.19 38.11 148.16 C 40.61 139.33 45.74 131.55 49.11 123.05 C 61.74 95.82 75.58 69.12 91.34 43.56 C 96.61 34.67 102.33 26.06 107.67 17.21 C 96.52 28.24 86.13 40.00 74.73 50.78 C 69.02 56.04 63.62 61.63 57.70 66.65 C 50.69 72.71 43.93 79.22 35.78 83.74 C 33.68 84.82 31.36 85.74 28.96 85.51 C 26.25 84.61 24.99 81.69 24.69 79.06 C 25.02 72.09 27.07 65.30 30.05 59.01 C 36.98 42.70 47.50 28.32 56.63 13.24 C 42.99 24.76 30.90 38.00 19.03 51.31 C 14.71 56.09 10.76 61.25 5.87 65.47 C 12.45 58.00 19.03 50.48 25.19 42.65 C 29.86 38.15 33.85 33.02 38.38 28.38 C 45.86 20.19 54.04 12.70 61.95 4.93 C 63.02 3.71 64.59 3.27 66.09 2.84 C 65.06 8.60 60.92 13.05 58.04 17.95 C 49.40 31.63 40.57 45.33 34.22 60.26 C 31.78 66.59 29.51 73.24 30.13 80.14 C 34.72 78.44 38.62 75.40 42.42 72.40 C 50.77 65.47 58.90 58.26 66.61 50.62 C 78.97 39.64 89.89 27.20 101.36 15.33 C 106.10 10.00 111.01 4.83 116.26 0.00 Z"
       id="path16" />
    <path
       opacity="1.00"
       fill="#46c7a2"
       d=" M 123.30 45.40 C 129.17 35.63 137.68 26.82 148.47 22.68 C 149.63 22.59 150.80 22.56 151.97 22.61 C 150.55 23.17 149.10 23.66 147.72 24.31 C 139.12 29.54 131.73 36.96 126.98 45.87 C 124.82 50.64 121.99 55.70 122.60 61.10 C 125.59 67.73 133.58 68.98 138.78 73.20 C 141.20 74.97 141.15 78.50 139.78 80.91 C 136.05 87.55 130.33 92.70 124.89 97.91 C 109.59 112.03 93.55 125.43 76.18 136.96 C 70.70 140.65 65.51 144.76 59.81 148.11 C 62.00 143.73 66.42 141.19 70.09 138.19 C 88.86 124.51 106.94 109.77 123.09 93.04 C 126.76 89.39 130.39 85.62 133.28 81.30 C 134.24 80.00 134.52 78.37 134.77 76.82 C 128.67 73.99 121.65 70.99 118.75 64.45 C 116.85 57.75 120.40 51.23 123.30 45.40 Z"
       id="path18" />
  </g>
</svg>
